<mxfile host="65bd71144e">
    <diagram id="H7F7Luz15lmeKNIwh1hu" name="Page-1">
        <mxGraphModel dx="366" dy="345" grid="1" gridSize="10" guides="1" tooltips="1" connect="1" arrows="1" fold="1" page="1" pageScale="1" pageWidth="700" pageHeight="300" math="0" shadow="0">
            <root>
                <mxCell id="0"/>
                <mxCell id="1" parent="0"/>
                <mxCell id="5" style="edgeStyle=none;html=1;exitX=0;exitY=0.5;exitDx=0;exitDy=0;entryX=1;entryY=0.5;entryDx=0;entryDy=0;fontColor=#000000;strokeColor=default;endArrow=none;endFill=0;startArrow=box;startFill=0;rounded=0;" parent="1" source="2" target="3" edge="1">
                    <mxGeometry relative="1" as="geometry">
                        <Array as="points">
                            <mxPoint x="335" y="65"/>
                            <mxPoint x="335" y="35"/>
                        </Array>
                    </mxGeometry>
                </mxCell>
                <mxCell id="7" style="edgeStyle=none;html=1;entryX=1;entryY=0.5;entryDx=0;entryDy=0;fontColor=#000000;startArrow=none;startFill=0;endArrow=none;endFill=0;strokeColor=default;rounded=0;" parent="1" target="4" edge="1">
                    <mxGeometry relative="1" as="geometry">
                        <mxPoint x="335" y="65" as="sourcePoint"/>
                        <Array as="points">
                            <mxPoint x="335" y="95"/>
                        </Array>
                    </mxGeometry>
                </mxCell>
                <mxCell id="2" value="Stats" style="rounded=0;whiteSpace=wrap;html=1;fontFamily=Jetbrains Mono;" parent="1" vertex="1">
                    <mxGeometry x="375" y="50" width="80" height="30" as="geometry"/>
                </mxCell>
                <mxCell id="3" value="&lt;font&gt;Tower&lt;/font&gt;" style="rounded=0;whiteSpace=wrap;html=1;fillColor=#bac8d3;strokeColor=#23445d;fontFamily=Jetbrains Mono;fontStyle=1;fontColor=#000066;" parent="1" vertex="1">
                    <mxGeometry x="195" y="20" width="100" height="30" as="geometry"/>
                </mxCell>
                <mxCell id="36" style="edgeStyle=none;rounded=0;html=1;exitX=0;exitY=0.5;exitDx=0;exitDy=0;entryX=1;entryY=0.5;entryDx=0;entryDy=0;fontFamily=Jetbrains Mono;fontColor=#FAFAFA;startArrow=none;startFill=0;endArrow=box;endFill=0;strokeColor=default;" parent="1" source="4" target="35" edge="1">
                    <mxGeometry relative="1" as="geometry"/>
                </mxCell>
                <mxCell id="4" value="&lt;font&gt;Enemy&lt;br&gt;&lt;/font&gt;" style="rounded=0;whiteSpace=wrap;html=1;fillColor=#bac8d3;strokeColor=#23445d;fontFamily=Jetbrains Mono;fontStyle=1;fontColor=#000066;" parent="1" vertex="1">
                    <mxGeometry x="195" y="80" width="100" height="30" as="geometry"/>
                </mxCell>
                <mxCell id="9" style="edgeStyle=none;html=1;exitX=0.5;exitY=0;exitDx=0;exitDy=0;entryX=0.5;entryY=1;entryDx=0;entryDy=0;fontColor=#000000;startArrow=none;startFill=0;endArrow=halfCircle;endFill=0;strokeColor=default;" parent="1" source="8" target="2" edge="1">
                    <mxGeometry relative="1" as="geometry"/>
                </mxCell>
                <mxCell id="8" value="&lt;font&gt;Caster&lt;br&gt;&lt;/font&gt;" style="rounded=0;whiteSpace=wrap;html=1;fillColor=#fad9d5;strokeColor=#ae4132;fontFamily=Jetbrains Mono;fontStyle=1;fontColor=#990000;" parent="1" vertex="1">
                    <mxGeometry x="375" y="140" width="80" height="30" as="geometry"/>
                </mxCell>
                <mxCell id="13" style="edgeStyle=none;rounded=0;html=1;exitX=0.5;exitY=1;exitDx=0;exitDy=0;fontFamily=Roboto;fontColor=#990000;startArrow=none;startFill=0;endArrow=open;endFill=0;strokeColor=default;entryX=0.5;entryY=0;entryDx=0;entryDy=0;" parent="1" source="8" target="15" edge="1">
                    <mxGeometry relative="1" as="geometry">
                        <mxPoint x="295" y="190" as="targetPoint"/>
                        <mxPoint x="415" y="200" as="sourcePoint"/>
                    </mxGeometry>
                </mxCell>
                <mxCell id="14" value="Create" style="edgeLabel;html=1;align=center;verticalAlign=middle;resizable=0;points=[];fontFamily=Jetbrains Mono;fontColor=#FFFFFF;" parent="13" vertex="1" connectable="0">
                    <mxGeometry x="0.2971" relative="1" as="geometry">
                        <mxPoint y="-9" as="offset"/>
                    </mxGeometry>
                </mxCell>
                <mxCell id="15" value="&lt;font&gt;Strike&lt;br&gt;&lt;/font&gt;" style="rounded=0;whiteSpace=wrap;html=1;fillColor=#b0e3e6;strokeColor=#0e8088;fontFamily=Jetbrains Mono;fontStyle=1;fontColor=#006666;" parent="1" vertex="1">
                    <mxGeometry x="365" y="230" width="100" height="30" as="geometry"/>
                </mxCell>
                <mxCell id="17" value="Combat Layer" style="rounded=0;whiteSpace=wrap;html=1;fontFamily=Jetbrains Mono;" parent="1" vertex="1">
                    <mxGeometry x="225" y="145" width="120" height="20" as="geometry"/>
                </mxCell>
                <mxCell id="18" style="edgeStyle=none;html=1;exitX=1;exitY=0.5;exitDx=0;exitDy=0;entryX=0;entryY=0.5;entryDx=0;entryDy=0;fontColor=#000000;startArrow=box;startFill=0;endArrow=none;endFill=0;strokeColor=default;" parent="1" source="17" target="8" edge="1">
                    <mxGeometry relative="1" as="geometry">
                        <mxPoint x="385" y="75" as="sourcePoint"/>
                        <mxPoint x="305" y="105" as="targetPoint"/>
                    </mxGeometry>
                </mxCell>
                <mxCell id="19" style="edgeStyle=none;html=1;exitX=0;exitY=0.5;exitDx=0;exitDy=0;entryX=0.5;entryY=1;entryDx=0;entryDy=0;fontColor=#000000;startArrow=none;startFill=0;endArrow=halfCircle;endFill=0;strokeColor=default;rounded=0;" parent="1" source="15" target="17" edge="1">
                    <mxGeometry relative="1" as="geometry">
                        <mxPoint x="425" y="150" as="sourcePoint"/>
                        <mxPoint x="425" y="90" as="targetPoint"/>
                        <Array as="points">
                            <mxPoint x="285" y="245"/>
                        </Array>
                    </mxGeometry>
                </mxCell>
                <mxCell id="37" style="edgeStyle=none;rounded=0;html=1;exitX=0.5;exitY=0;exitDx=0;exitDy=0;entryX=0.5;entryY=1;entryDx=0;entryDy=0;fontFamily=Jetbrains Mono;fontColor=#FAFAFA;startArrow=none;startFill=0;endArrow=halfCircle;endFill=0;strokeColor=default;" parent="1" source="24" target="35" edge="1">
                    <mxGeometry relative="1" as="geometry"/>
                </mxCell>
                <mxCell id="24" value="&lt;font&gt;Movement&lt;br&gt;&lt;/font&gt;" style="rounded=0;whiteSpace=wrap;html=1;fillColor=#d0cee2;strokeColor=#56517e;fontFamily=Jetbrains Mono;fontStyle=1;fontColor=#330066;" parent="1" vertex="1">
                    <mxGeometry x="45" y="130" width="100" height="30" as="geometry"/>
                </mxCell>
                <mxCell id="35" value="Movement Speed" style="rounded=0;whiteSpace=wrap;html=1;fontFamily=Jetbrains Mono;" parent="1" vertex="1">
                    <mxGeometry x="35" y="85" width="120" height="20" as="geometry"/>
                </mxCell>
                <mxCell id="38" style="edgeStyle=none;html=1;fontColor=#000000;startArrow=none;startFill=0;endArrow=halfCircle;endFill=0;strokeColor=default;rounded=0;" parent="1" edge="1">
                    <mxGeometry relative="1" as="geometry">
                        <mxPoint x="125" y="210" as="sourcePoint"/>
                        <mxPoint x="55" y="210" as="targetPoint"/>
                        <Array as="points"/>
                    </mxGeometry>
                </mxCell>
                <mxCell id="39" value="Get" style="edgeLabel;html=1;align=center;verticalAlign=middle;resizable=0;points=[];fontFamily=Jetbrains Mono;fontColor=#FAFAFA;fontSize=11;" parent="38" vertex="1" connectable="0">
                    <mxGeometry x="-0.1172" y="2" relative="1" as="geometry">
                        <mxPoint y="-2" as="offset"/>
                    </mxGeometry>
                </mxCell>
                <mxCell id="40" style="edgeStyle=none;html=1;fontColor=#000000;startArrow=none;startFill=0;endArrow=box;endFill=0;strokeColor=default;rounded=0;" parent="1" edge="1">
                    <mxGeometry relative="1" as="geometry">
                        <mxPoint x="125" y="239" as="sourcePoint"/>
                        <mxPoint x="55" y="239" as="targetPoint"/>
                        <Array as="points"/>
                    </mxGeometry>
                </mxCell>
                <mxCell id="41" value="Contain" style="edgeLabel;html=1;align=center;verticalAlign=middle;resizable=0;points=[];fontFamily=Jetbrains Mono;fontColor=#FAFAFA;fontSize=11;" parent="40" vertex="1" connectable="0">
                    <mxGeometry x="-0.1172" y="2" relative="1" as="geometry">
                        <mxPoint y="-2" as="offset"/>
                    </mxGeometry>
                </mxCell>
                <mxCell id="43" value="&lt;font color=&quot;#ffffff&quot; face=&quot;Jetbrains Mono&quot;&gt;Detect&lt;/font&gt;" style="edgeStyle=none;html=1;exitX=0;exitY=0.5;exitDx=0;exitDy=0;fontColor=#004C99;endArrow=open;endFill=0;entryX=1;entryY=0.5;entryDx=0;entryDy=0;" edge="1" parent="1" source="42" target="8">
                    <mxGeometry relative="1" as="geometry">
                        <mxPoint x="460" y="155" as="targetPoint"/>
                    </mxGeometry>
                </mxCell>
                <mxCell id="42" value="&lt;font&gt;Aiming&lt;br&gt;&lt;/font&gt;" style="rounded=0;whiteSpace=wrap;html=1;fillColor=#fad7ac;strokeColor=#b46504;fontFamily=Jetbrains Mono;fontStyle=1;fontColor=#994C00;" vertex="1" parent="1">
                    <mxGeometry x="530" y="140" width="80" height="30" as="geometry"/>
                </mxCell>
            </root>
        </mxGraphModel>
    </diagram>
</mxfile>